<?xml version="1.0" encoding="UTF-8"?>
<svg xmlns="http://www.w3.org/2000/svg" viewBox="0 0 24 24" fill="#ffffff" role="img">
  <title>GitHub</title>
  <path d="M12 .297C5.373.297 0 5.67 0 12.297c0 5.292 3.438 9.773 8.205 11.366.6.111.82-.261.82-.58 0-.287-.01-1.04-.015-2.04-3.338.726-4.042-1.61-4.042-1.61-.546-1.386-1.333-1.756-1.333-1.756-1.09-.745.082-.73.082-.73 1.205.084 1.84 1.238 1.84 1.238 1.07 1.835 2.809 1.305 3.495.998.108-.776.42-1.305.763-1.605-2.665-.306-5.467-1.334-5.467-5.93 0-1.31.468-2.38 1.235-3.22-.124-.303-.535-1.524.117-3.176 0 0 1.008-.322 3.301 1.23a11.52 11.52 0 013.003-.404c1.02.005 2.045.138 3.003.404 2.292-1.552 3.297-1.23 3.297-1.23.654 1.652.243 2.873.12 3.176.77.84 1.233 1.91 1.233 3.22 0 4.61-2.807 5.62-5.479 5.92.431.372.815 1.102.815 2.222 0 1.605-.015 2.898-.015 3.293 0 .322.216.697.825.578C20.565 22.067 24 17.587 24 12.297 24 5.67 18.627.297 12 .297z"/>
</svg>
